<?xml version="1.0" encoding="utf-8" standalone="no"?>
<!DOCTYPE svg PUBLIC "-//W3C//DTD SVG 1.1//EN"
  "http://www.w3.org/Graphics/SVG/1.1/DTD/svg11.dtd">
<svg xmlns:xlink="http://www.w3.org/1999/xlink" width="296.39952pt" height="224.39952pt" viewBox="0 0 296.39952 224.39952" xmlns="http://www.w3.org/2000/svg" version="1.1">
 <metadata>
  <rdf:RDF xmlns:dc="http://purl.org/dc/elements/1.1/" xmlns:cc="http://creativecommons.org/ns#" xmlns:rdf="http://www.w3.org/1999/02/22-rdf-syntax-ns#">
   <cc:Work>
    <dc:type rdf:resource="http://purl.org/dc/dcmitype/StillImage"/>
    <dc:date>2025-12-08T21:35:40.364850</dc:date>
    <dc:format>image/svg+xml</dc:format>
    <dc:creator>
     <cc:Agent>
      <dc:title>Matplotlib v3.10.3, https://matplotlib.org/</dc:title>
     </cc:Agent>
    </dc:creator>
   </cc:Work>
  </rdf:RDF>
 </metadata>
 <defs>
  <style type="text/css">*{stroke-linejoin: round; stroke-linecap: butt}</style>
 </defs>
 <g id="figure_1">
  <g id="patch_1">
   <path d="M 0 224.39952 
L 296.39952 224.39952 
L 296.39952 0 
L 0 0 
L 0 224.39952 
z
" style="fill: none"/>
  </g>
  <g id="axes_1">
   <g id="line2d_1">
    <path d="M 20.01816 111.322594 
L 22.077302 57.685562 
L 23.106873 37.297321 
L 24.136444 23.320819 
L 25.166015 16.745433 
L 26.195587 17.977708 
L 27.225158 26.809744 
L 28.254729 42.431088 
L 29.2843 63.499723 
L 31.343442 114.735576 
L 33.402584 164.56493 
L 34.432155 184.221292 
L 35.461726 198.449142 
L 36.491297 206.374352 
L 37.520868 207.654087 
L 38.55044 202.493239 
L 39.580011 191.613024 
L 40.609582 176.175115 
L 42.668724 137.805803 
L 44.727866 100.79826 
L 45.757437 86.644357 
L 46.787008 76.855369 
L 47.816579 72.009066 
L 48.84615 72.204957 
L 49.875721 77.072502 
L 50.905293 85.838415 
L 51.934864 97.433287 
L 55.023577 136.711953 
L 56.053148 147.4029 
L 57.082719 155.396536 
L 58.11229 160.176781 
L 59.141861 161.513449 
L 60.171432 159.461637 
L 61.201003 154.347691 
L 62.230574 146.73938 
L 64.289717 127.191602 
L 66.348859 107.942459 
L 67.37843 100.599897 
L 68.408001 95.646349 
L 69.437572 93.456708 
L 70.467143 94.157601 
L 71.496714 97.624664 
L 72.526285 103.498444 
L 73.555856 111.215977 
L 76.64457 137.743004 
L 77.674141 144.956241 
L 78.703712 150.165706 
L 79.733283 152.9105 
L 80.762854 152.960735 
L 81.792425 150.337491 
L 82.821996 145.311633 
L 83.851567 138.378012 
L 87.969852 105.909181 
L 88.999423 100.344557 
L 90.028994 96.965067 
L 91.058565 96.04258 
L 92.088136 97.656989 
L 93.117707 101.70601 
L 94.147278 107.907896 
L 95.176849 115.810098 
L 99.295133 151.642507 
L 100.324705 158.241812 
L 101.354276 162.691178 
L 102.383847 164.577395 
L 103.413418 163.650621 
L 104.442989 159.838554 
L 105.47256 153.248836 
L 106.502131 144.173792 
L 107.531702 133.091697 
L 111.649987 83.489495 
L 112.679558 74.305391 
L 113.709129 68.231856 
L 114.7387 65.932894 
L 115.768271 67.789023 
L 116.797842 73.849938 
L 117.827413 83.82068 
L 118.856984 97.082104 
L 120.916126 129.767823 
L 122.975268 163.1133 
L 124.00484 177.083996 
L 125.034411 187.855585 
L 126.063982 194.630657 
L 127.093553 196.888411 
L 128.123124 194.424466 
L 129.152695 187.369615 
L 130.182266 176.178565 
L 131.211837 161.58145 
L 133.270979 126.081225 
L 135.330121 89.791849 
L 136.359693 74.2658 
L 137.389264 61.859557 
L 138.418835 53.368419 
L 139.448406 49.343674 
L 140.477977 50.066136 
L 141.507548 55.530105 
L 142.537119 65.436278 
L 143.56669 79.196301 
L 144.596261 95.958519 
L 148.714546 169.898864 
L 149.744117 183.833131 
L 150.773688 193.738335 
L 151.803259 198.922466 
L 152.83283 199.044503 
L 153.862401 194.143128 
L 154.891972 184.633739 
L 155.921543 171.274978 
L 157.980685 137.405243 
L 160.039827 102.71211 
L 161.069399 88.208531 
L 162.09897 76.91933 
L 163.128541 69.475444 
L 164.158112 66.165497 
L 165.187683 66.927255 
L 166.217254 71.384085 
L 167.246825 78.91374 
L 168.276396 88.728931 
L 172.39468 133.519011 
L 173.424252 142.327353 
L 174.453823 149.170542 
L 175.483394 153.834885 
L 176.512965 156.274327 
L 177.542536 156.610419 
L 178.572107 155.118701 
L 179.601678 152.198139 
L 180.631249 148.327572 
L 183.719962 135.680854 
L 184.749533 132.249965 
L 185.779105 129.485518 
L 186.808676 127.370898 
L 187.838247 125.780651 
L 190.92696 122.077368 
L 191.956531 120.522391 
L 192.986102 118.588981 
L 194.015673 116.264977 
L 196.074815 110.806329 
L 198.133958 105.410447 
L 199.163529 103.247733 
L 200.1931 101.736931 
L 201.222671 101.106787 
L 202.252242 101.569608 
L 203.281813 103.292895 
L 204.311384 106.367983 
L 205.340955 110.78841 
L 206.370526 116.447044 
L 207.400097 123.141058 
L 211.518382 153.174659 
L 212.547953 159.221618 
L 213.577524 163.714828 
L 214.607095 166.219378 
L 215.636666 166.392884 
L 216.666237 164.028663 
L 217.695808 159.0856 
L 218.725379 151.701885 
L 219.75495 142.202282 
L 221.814093 119.086129 
L 223.873235 95.605559 
L 224.902806 85.877999 
L 225.932377 78.575025 
L 226.961948 74.349614 
L 227.991519 73.6505 
L 229.02109 76.670679 
L 230.050661 83.310167 
L 231.080232 93.154749 
L 232.109803 105.484737 
L 235.198517 146.831078 
L 236.228088 158.120031 
L 237.257659 166.38933 
L 238.28723 170.940144 
L 239.316801 171.440901 
L 240.346372 167.950431 
L 241.375943 160.887902 
L 242.405514 150.96863 
L 244.464656 126.434821 
L 245.494227 114.017882 
L 246.523799 102.976919 
L 247.55337 94.306 
L 248.582941 88.800701 
L 249.612512 86.968959 
L 250.642083 88.972576 
L 251.671654 94.61565 
L 252.701225 103.375085 
L 253.730796 114.45173 
L 256.819509 150.839032 
L 257.84908 160.158424 
L 258.878652 166.37394 
L 259.908223 168.813825 
L 260.937794 167.121831 
L 261.967365 161.286783 
L 262.996936 151.661145 
L 264.026507 138.945348 
L 268.144791 79.598856 
L 269.174362 69.002143 
L 270.203933 62.379862 
L 271.233505 60.466924 
L 272.263076 63.644611 
L 273.292647 71.903959 
L 274.322218 84.829753 
L 275.351789 101.609286 
L 276.38136 121.082109 
L 276.38136 121.082109 
" clip-path="url(#pd64a684bdb)" style="fill: none; stroke: #008000; stroke-width: 1.5; stroke-linecap: square"/>
   </g>
  </g>
 </g>
 <defs>
  <clipPath id="pd64a684bdb">
   <rect x="7.2" y="7.2" width="281.99952" height="209.99952"/>
  </clipPath>
 </defs>
</svg>
