<?xml version="1.0" encoding="utf-8" standalone="no"?>
<!DOCTYPE svg PUBLIC "-//W3C//DTD SVG 1.1//EN"
  "http://www.w3.org/Graphics/SVG/1.1/DTD/svg11.dtd">
<svg xmlns:xlink="http://www.w3.org/1999/xlink" width="204.954046pt" height="236.16pt" viewBox="0 0 204.954046 236.16" xmlns="http://www.w3.org/2000/svg" version="1.1">
 <metadata>
  <rdf:RDF xmlns:dc="http://purl.org/dc/elements/1.1/" xmlns:cc="http://creativecommons.org/ns#" xmlns:rdf="http://www.w3.org/1999/02/22-rdf-syntax-ns#">
   <cc:Work>
    <dc:type rdf:resource="http://purl.org/dc/dcmitype/StillImage"/>
    <dc:date>2025-12-08T21:35:40.310616</dc:date>
    <dc:format>image/svg+xml</dc:format>
    <dc:creator>
     <cc:Agent>
      <dc:title>Matplotlib v3.10.3, https://matplotlib.org/</dc:title>
     </cc:Agent>
    </dc:creator>
   </cc:Work>
  </rdf:RDF>
 </metadata>
 <defs>
  <style type="text/css">*{stroke-linejoin: round; stroke-linecap: butt}</style>
 </defs>
 <g id="figure_1">
  <g id="patch_1">
   <path d="M 0 236.16 
L 204.954046 236.16 
L 204.954046 0 
L 0 0 
L 0 236.16 
z
" style="fill: none"/>
  </g>
  <g id="axes_1">
   <g id="PathCollection_1">
    <defs>
     <path id="C0_0_ca0ef68835" d="M 0 2.5 
C 0.663008 2.5 1.29895 2.236584 1.767767 1.767767 
C 2.236584 1.29895 2.5 0.663008 2.5 -0 
C 2.5 -0.663008 2.236584 -1.29895 1.767767 -1.767767 
C 1.29895 -2.236584 0.663008 -2.5 0 -2.5 
C -0.663008 -2.5 -1.29895 -2.236584 -1.767767 -1.767767 
C -2.236584 -1.29895 -2.5 -0.663008 -2.5 0 
C -2.5 0.663008 -2.236584 1.29895 -1.767767 1.767767 
C -1.29895 2.236584 -0.663008 2.5 0 2.5 
z
"/>
    </defs>
    <use xlink:href="#C0_0_ca0ef68835" x="72.35598" y="18.105217" style="stroke: #000000; stroke-width: 2"/>
    <use xlink:href="#C0_0_ca0ef68835" x="132.536755" y="17.28" style="stroke: #000000; stroke-width: 2"/>
    <use xlink:href="#C0_0_ca0ef68835" x="28.343948" y="57.930004" style="stroke: #000000; stroke-width: 2"/>
    <use xlink:href="#C0_0_ca0ef68835" x="64.325334" y="66.804309" style="stroke: #000000; stroke-width: 2"/>
    <use xlink:href="#C0_0_ca0ef68835" x="102.638216" y="68.062796" style="stroke: #000000; stroke-width: 2"/>
    <use xlink:href="#C0_0_ca0ef68835" x="141.847521" y="65.801465" style="stroke: #000000; stroke-width: 2"/>
    <use xlink:href="#C0_0_ca0ef68835" x="178.847404" y="56.274235" style="stroke: #000000; stroke-width: 2"/>
    <use xlink:href="#C0_0_ca0ef68835" x="39.338351" y="91.018579" style="stroke: #000000; stroke-width: 2"/>
    <use xlink:href="#C0_0_ca0ef68835" x="80.834533" y="92.400528" style="stroke: #000000; stroke-width: 2"/>
    <use xlink:href="#C0_0_ca0ef68835" x="124.439579" y="92.29303" style="stroke: #000000; stroke-width: 2"/>
    <use xlink:href="#C0_0_ca0ef68835" x="167.012003" y="90.378998" style="stroke: #000000; stroke-width: 2"/>
    <use xlink:href="#C0_0_ca0ef68835" x="15.861548" y="119.201597" style="stroke: #000000; stroke-width: 2"/>
    <use xlink:href="#C0_0_ca0ef68835" x="59.370814" y="116.308848" style="stroke: #000000; stroke-width: 2"/>
    <use xlink:href="#C0_0_ca0ef68835" x="102.609465" y="114.999646" style="stroke: #000000; stroke-width: 2"/>
    <use xlink:href="#C0_0_ca0ef68835" x="146.408492" y="116.154752" style="stroke: #000000; stroke-width: 2"/>
    <use xlink:href="#C0_0_ca0ef68835" x="189.092499" y="118.777537" style="stroke: #000000; stroke-width: 2"/>
    <use xlink:href="#C0_0_ca0ef68835" x="41.282182" y="142.644392" style="stroke: #000000; stroke-width: 2"/>
    <use xlink:href="#C0_0_ca0ef68835" x="81.067604" y="137.663611" style="stroke: #000000; stroke-width: 2"/>
    <use xlink:href="#C0_0_ca0ef68835" x="125.224743" y="137.721889" style="stroke: #000000; stroke-width: 2"/>
    <use xlink:href="#C0_0_ca0ef68835" x="165.752719" y="142.747159" style="stroke: #000000; stroke-width: 2"/>
    <use xlink:href="#C0_0_ca0ef68835" x="102.569222" y="41.973394" style="stroke: #000000; stroke-width: 2"/>
    <use xlink:href="#C0_0_ca0ef68835" x="33.683375" y="173.36228" style="stroke: #000000; stroke-width: 2"/>
    <use xlink:href="#C0_0_ca0ef68835" x="66.337961" y="161.611183" style="stroke: #000000; stroke-width: 2"/>
    <use xlink:href="#C0_0_ca0ef68835" x="102.38397" y="158.972373" style="stroke: #000000; stroke-width: 2"/>
    <use xlink:href="#C0_0_ca0ef68835" x="139.600378" y="161.636866" style="stroke: #000000; stroke-width: 2"/>
    <use xlink:href="#C0_0_ca0ef68835" x="170.485617" y="173.547906" style="stroke: #000000; stroke-width: 2"/>
    <use xlink:href="#C0_0_ca0ef68835" x="35.505082" y="217.918171" style="stroke: #000000; stroke-width: 2"/>
    <use xlink:href="#C0_0_ca0ef68835" x="76.527356" y="202.233015" style="stroke: #000000; stroke-width: 2"/>
    <use xlink:href="#C0_0_ca0ef68835" x="101.874968" y="201.223602" style="stroke: #000000; stroke-width: 2"/>
    <use xlink:href="#C0_0_ca0ef68835" x="127.326619" y="202.151482" style="stroke: #000000; stroke-width: 2"/>
    <use xlink:href="#C0_0_ca0ef68835" x="167.47182" y="218.88" style="stroke: #000000; stroke-width: 2"/>
    <use xlink:href="#C0_0_ca0ef68835" x="45.221931" y="31.606862" style="stroke: #000000; stroke-width: 2"/>
    <use xlink:href="#C0_0_ca0ef68835" x="73.48154" y="39.746985" style="stroke: #000000; stroke-width: 2"/>
    <use xlink:href="#C0_0_ca0ef68835" x="132.796695" y="39.442363" style="stroke: #000000; stroke-width: 2"/>
    <use xlink:href="#C0_0_ca0ef68835" x="160.075617" y="30.776051" style="stroke: #000000; stroke-width: 2"/>
    <use xlink:href="#C0_0_ca0ef68835" x="46.483556" y="63.828441" style="stroke: #000000; stroke-width: 2"/>
    <use xlink:href="#C0_0_ca0ef68835" x="83.152955" y="67.940604" style="stroke: #000000; stroke-width: 2"/>
    <use xlink:href="#C0_0_ca0ef68835" x="123.146486" y="67.430874" style="stroke: #000000; stroke-width: 2"/>
    <use xlink:href="#C0_0_ca0ef68835" x="161.241168" y="62.403155" style="stroke: #000000; stroke-width: 2"/>
    <use xlink:href="#C0_0_ca0ef68835" x="17.538157" y="87.71129" style="stroke: #000000; stroke-width: 2"/>
    <use xlink:href="#C0_0_ca0ef68835" x="60.595816" y="92.305833" style="stroke: #000000; stroke-width: 2"/>
    <use xlink:href="#C0_0_ca0ef68835" x="145.561047" y="91.877573" style="stroke: #000000; stroke-width: 2"/>
    <use xlink:href="#C0_0_ca0ef68835" x="187.695859" y="86.844434" style="stroke: #000000; stroke-width: 2"/>
    <use xlink:href="#C0_0_ca0ef68835" x="39.764212" y="117.56187" style="stroke: #000000; stroke-width: 2"/>
    <use xlink:href="#C0_0_ca0ef68835" x="80.683284" y="115.429161" style="stroke: #000000; stroke-width: 2"/>
    <use xlink:href="#C0_0_ca0ef68835" x="124.936271" y="115.415474" style="stroke: #000000; stroke-width: 2"/>
    <use xlink:href="#C0_0_ca0ef68835" x="167.084467" y="117.234726" style="stroke: #000000; stroke-width: 2"/>
    <use xlink:href="#C0_0_ca0ef68835" x="18.229345" y="148.845747" style="stroke: #000000; stroke-width: 2"/>
    <use xlink:href="#C0_0_ca0ef68835" x="60.872147" y="139.336883" style="stroke: #000000; stroke-width: 2"/>
    <use xlink:href="#C0_0_ca0ef68835" x="102.522391" y="137.199309" style="stroke: #000000; stroke-width: 2"/>
    <use xlink:href="#C0_0_ca0ef68835" x="145.595172" y="139.416244" style="stroke: #000000; stroke-width: 2"/>
    <use xlink:href="#C0_0_ca0ef68835" x="186.253658" y="149.033015" style="stroke: #000000; stroke-width: 2"/>
    <use xlink:href="#C0_0_ca0ef68835" x="50.214742" y="165.756511" style="stroke: #000000; stroke-width: 2"/>
    <use xlink:href="#C0_0_ca0ef68835" x="84.235688" y="159.565509" style="stroke: #000000; stroke-width: 2"/>
    <use xlink:href="#C0_0_ca0ef68835" x="122.139478" y="159.590315" style="stroke: #000000; stroke-width: 2"/>
    <use xlink:href="#C0_0_ca0ef68835" x="154.165316" y="165.805769" style="stroke: #000000; stroke-width: 2"/>
    <use xlink:href="#C0_0_ca0ef68835" x="52.594065" y="192.520378" style="stroke: #000000; stroke-width: 2"/>
    <use xlink:href="#C0_0_ca0ef68835" x="75.243593" y="181.512182" style="stroke: #000000; stroke-width: 2"/>
    <use xlink:href="#C0_0_ca0ef68835" x="102.179597" y="178.39458" style="stroke: #000000; stroke-width: 2"/>
    <use xlink:href="#C0_0_ca0ef68835" x="128.927515" y="181.825527" style="stroke: #000000; stroke-width: 2"/>
    <use xlink:href="#C0_0_ca0ef68835" x="151.626329" y="192.98017" style="stroke: #000000; stroke-width: 2"/>
   </g>
   <g id="line2d_1">
    <path d="M 179.045532 126.699972 
L 178.8955 121.925896 
L 178.445998 117.170661 
L 177.6988 112.453034 
L 176.656853 107.791632 
L 175.324271 103.204854 
L 173.706311 98.710799 
L 171.809361 94.327206 
L 169.640906 90.071373 
L 167.209503 85.960096 
L 164.52475 82.009601 
L 161.59724 78.235478 
L 158.438528 74.652623 
L 155.06108 71.275174 
L 151.478224 68.116462 
L 147.704102 65.188953 
L 143.753607 62.504199 
L 139.64233 60.072797 
L 135.386497 57.904341 
L 131.002903 56.007391 
L 126.508849 54.389432 
L 121.92207 53.05685 
L 117.260669 52.014903 
L 112.543042 51.267704 
L 107.787806 50.818202 
L 103.01373 50.668171 
L 98.239654 50.818202 
L 93.484418 51.267704 
L 88.766791 52.014903 
L 84.10539 53.05685 
L 79.518611 54.389432 
L 75.024557 56.007391 
L 70.640963 57.904341 
L 66.38513 60.072797 
L 62.273853 62.504199 
L 58.323358 65.188953 
L 54.549236 68.116462 
L 50.96638 71.275174 
L 47.588932 74.652623 
L 44.43022 78.235478 
L 41.50271 82.009601 
L 38.817957 85.960096 
L 36.386554 90.071373 
L 34.218099 94.327206 
L 32.321149 98.710799 
L 30.703189 103.204854 
L 29.370607 107.791632 
L 28.32866 112.453034 
L 27.581462 117.170661 
L 27.13196 121.925896 
L 26.981928 126.699972 
L 27.13196 131.474049 
L 27.581462 136.229284 
L 28.32866 140.946911 
L 29.370607 145.608313 
L 30.703189 150.195091 
L 32.321149 154.689146 
L 34.218099 159.072739 
L 36.386554 163.328572 
L 38.817957 167.439849 
L 41.50271 171.390344 
L 44.43022 175.164467 
L 47.588932 178.747322 
L 50.96638 182.124771 
L 54.549236 185.283483 
L 58.323358 188.210992 
L 62.273853 190.895746 
L 66.38513 193.327148 
L 70.640963 195.495604 
L 75.024557 197.392554 
L 79.518611 199.010513 
L 84.10539 200.343095 
L 88.766791 201.385042 
L 93.484418 202.132241 
L 98.239654 202.581743 
L 103.01373 202.731774 
L 107.787806 202.581743 
L 112.543042 202.132241 
L 117.260669 201.385042 
L 121.92207 200.343095 
L 126.508849 199.010513 
L 131.002903 197.392554 
L 135.386497 195.495604 
L 139.64233 193.327148 
L 143.753607 190.895746 
L 147.704102 188.210992 
L 151.478224 185.283483 
L 155.06108 182.124771 
L 158.438528 178.747322 
L 161.59724 175.164467 
L 164.52475 171.390344 
L 167.209503 167.439849 
L 169.640906 163.328572 
L 171.809361 159.072739 
L 173.706311 154.689146 
L 175.324271 150.195091 
L 176.656853 145.608313 
L 177.6988 140.946911 
L 178.445998 136.229284 
L 178.8955 131.474049 
L 179.045532 126.699972 
" style="fill: none; stroke: #000000; stroke-linecap: square"/>
   </g>
   <g id="line2d_2">
    <path d="M 87.089667 52.354434 
L 103.01373 39.2634 
L 118.937793 52.354434 
" style="fill: none; stroke: #000000; stroke-linecap: square"/>
   </g>
   <g id="line2d_3">
    <path d="M 27.438119 118.260443 
L 25.461292 114.915043 
L 24.244783 114.793392 
L 22.435227 115.356028 
L 20.610463 118.260443 
L 20.899384 127.536322 
L 19.834939 140.8723 
L 22.115893 146.665924 
L 25.461292 147.745575 
L 28.654628 144.932399 
" style="fill: none; stroke: #000000; stroke-linecap: square"/>
   </g>
   <g id="line2d_4">
    <path d="M 178.589341 118.260443 
L 180.566168 114.915043 
L 181.782677 114.793392 
L 183.592234 115.356028 
L 185.416997 118.260443 
L 185.128076 127.536322 
L 186.192521 140.8723 
L 183.911567 146.665924 
L 180.566168 147.745575 
L 177.372832 144.932399 
" style="fill: none; stroke: #000000; stroke-linecap: square"/>
   </g>
  </g>
 </g>
</svg>
