<?xml version="1.0" encoding="utf-8" standalone="no"?>
<!DOCTYPE svg PUBLIC "-//W3C//DTD SVG 1.1//EN"
  "http://www.w3.org/Graphics/SVG/1.1/DTD/svg11.dtd">
<svg xmlns:xlink="http://www.w3.org/1999/xlink" width="296.39952pt" height="224.39952pt" viewBox="0 0 296.39952 224.39952" xmlns="http://www.w3.org/2000/svg" version="1.1">
 <metadata>
  <rdf:RDF xmlns:dc="http://purl.org/dc/elements/1.1/" xmlns:cc="http://creativecommons.org/ns#" xmlns:rdf="http://www.w3.org/1999/02/22-rdf-syntax-ns#">
   <cc:Work>
    <dc:type rdf:resource="http://purl.org/dc/dcmitype/StillImage"/>
    <dc:date>2025-12-08T21:35:40.340040</dc:date>
    <dc:format>image/svg+xml</dc:format>
    <dc:creator>
     <cc:Agent>
      <dc:title>Matplotlib v3.10.3, https://matplotlib.org/</dc:title>
     </cc:Agent>
    </dc:creator>
   </cc:Work>
  </rdf:RDF>
 </metadata>
 <defs>
  <style type="text/css">*{stroke-linejoin: round; stroke-linecap: butt}</style>
 </defs>
 <g id="figure_1">
  <g id="patch_1">
   <path d="M 0 224.39952 
L 296.39952 224.39952 
L 296.39952 0 
L 0 0 
L 0 224.39952 
z
" style="fill: none"/>
  </g>
  <g id="axes_1">
   <g id="line2d_1">
    <path d="M 20.01816 96.552572 
L 22.077302 61.741959 
L 23.106873 48.144897 
L 24.136444 38.332089 
L 25.166015 32.966188 
L 26.195587 32.439058 
L 27.225158 36.844738 
L 28.254729 45.967429 
L 29.2843 59.287924 
L 30.313871 76.011452 
L 32.373013 115.415506 
L 34.432155 154.520796 
L 35.461726 170.875868 
L 36.491297 183.690113 
L 37.520868 192.181374 
L 38.55044 195.851513 
L 39.580011 194.516789 
L 40.609582 188.3139 
L 41.639153 177.681548 
L 42.668724 163.322727 
L 44.727866 127.246511 
L 46.787008 88.860774 
L 47.816579 71.671561 
L 48.84615 57.180258 
L 49.875721 46.192053 
L 50.905293 39.281277 
L 51.934864 36.761408 
L 52.964435 38.673724 
L 53.994006 44.79546 
L 55.023577 54.664296 
L 56.053148 67.616867 
L 58.11229 99.420885 
L 60.171432 132.90586 
L 61.201003 148.027926 
L 62.230574 161.036371 
L 63.260146 171.319797 
L 64.289717 178.424698 
L 65.319288 182.068218 
L 66.348859 182.141354 
L 67.37843 178.704735 
L 68.408001 171.978819 
L 69.437572 162.329009 
L 70.467143 150.246959 
L 72.526285 121.25128 
L 74.585427 90.552719 
L 75.614999 76.425477 
L 76.64457 64.064915 
L 77.674141 54.108348 
L 78.703712 47.097478 
L 79.733283 43.449045 
L 80.762854 43.42727 
L 81.792425 47.121502 
L 82.821996 54.431247 
L 83.851567 65.05972 
L 84.881138 78.518619 
L 86.94028 111.145553 
L 88.999423 145.58437 
L 90.028994 161.098774 
L 91.058565 174.229204 
L 92.088136 184.149056 
L 93.117707 190.186885 
L 94.147278 191.877499 
L 95.176849 189.000851 
L 96.20642 181.607369 
L 97.235991 170.029261 
L 98.265562 154.873487 
L 100.324705 117.433503 
L 102.383847 78.067829 
L 103.413418 60.728373 
L 104.442989 46.485234 
L 105.47256 36.283684 
L 106.502131 30.819072 
L 107.531702 30.483473 
L 108.561273 35.332409 
L 109.590844 45.076014 
L 110.620415 59.09671 
L 111.649987 76.491208 
L 115.768271 155.630674 
L 116.797842 171.396909 
L 117.827413 183.315834 
L 118.856984 190.637734 
L 119.886555 192.915631 
L 120.916126 190.037834 
L 121.945697 182.240285 
L 122.975268 170.09409 
L 124.00484 154.46621 
L 126.063982 117.318598 
L 128.123124 80.883327 
L 129.152695 66.036748 
L 130.182266 54.794192 
L 131.211837 47.856752 
L 132.241408 45.608721 
L 133.270979 48.091555 
L 134.30055 55.00445 
L 135.330121 65.731725 
L 136.359693 79.394197 
L 140.477977 140.780847 
L 141.507548 152.123406 
L 142.537119 160.071825 
L 143.56669 164.171664 
L 144.596261 164.279043 
L 145.625832 160.558009 
L 146.655403 153.456293 
L 147.684974 143.662661 
L 149.744117 119.587472 
L 151.803259 96.098143 
L 152.83283 86.850984 
L 153.862401 80.194788 
L 154.891972 76.550984 
L 155.921543 76.087676 
L 156.951114 78.716135 
L 157.980685 84.107014 
L 159.010256 91.724727 
L 161.069399 110.781128 
L 163.128541 129.609792 
L 164.158112 137.050106 
L 165.187683 142.369941 
L 166.217254 145.171867 
L 167.246825 145.26217 
L 168.276396 142.664123 
L 169.305967 137.615732 
L 170.335538 130.551563 
L 172.39468 112.871015 
L 174.453823 95.375196 
L 175.483394 88.511224 
L 176.512965 83.691985 
L 177.542536 81.310557 
L 178.572107 81.559801 
L 179.601678 84.415616 
L 180.631249 89.638839 
L 181.66082 96.79722 
L 183.719962 114.462604 
L 185.779105 131.762806 
L 186.808676 138.494108 
L 187.838247 143.173558 
L 188.867818 145.419388 
L 189.897389 145.046445 
L 190.92696 142.078532 
L 191.956531 136.746935 
L 192.986102 129.476121 
L 195.045244 111.589558 
L 197.104387 94.202824 
L 198.133958 87.549007 
L 199.163529 83.064801 
L 200.1931 81.152603 
L 201.222671 82.007102 
L 202.252242 85.598772 
L 203.281813 91.674555 
L 204.311384 99.774374 
L 206.370526 119.380816 
L 208.429668 138.170361 
L 209.45924 145.231607 
L 210.488811 149.827765 
L 211.518382 151.484729 
L 212.547953 149.946536 
L 213.577524 145.204935 
L 214.607095 137.513433 
L 215.636666 127.380331 
L 217.695808 102.886765 
L 219.75495 79.185051 
L 220.784521 70.118312 
L 221.814093 64.051807 
L 222.843664 61.600499 
L 223.873235 63.116085 
L 224.902806 68.651655 
L 225.932377 77.948493 
L 226.961948 90.446249 
L 229.02109 121.520465 
L 231.080232 153.177347 
L 232.109803 166.223601 
L 233.139374 175.966271 
L 234.168946 181.561312 
L 235.198517 182.445983 
L 236.228088 178.391027 
L 237.257659 169.527442 
L 238.28723 156.343617 
L 239.316801 139.653827 
L 243.435085 62.017764 
L 244.464656 46.737257 
L 245.494227 35.627896 
L 246.523799 29.569941 
L 247.55337 29.101512 
L 248.582941 34.374773 
L 249.612512 45.140824 
L 250.642083 60.764191 
L 251.671654 80.264915 
L 255.789938 169.391333 
L 256.819509 186.829359 
L 257.84908 199.584281 
L 258.878652 206.715253 
L 259.908223 207.654087 
L 260.937794 202.251962 
L 261.967365 190.798199 
L 262.996936 174.008479 
L 264.026507 152.981198 
L 268.144791 57.145591 
L 269.174362 38.564251 
L 270.203933 25.064198 
L 271.233505 17.610081 
L 272.263076 16.745433 
L 273.292647 22.5496 
L 274.322218 34.629943 
L 275.351789 52.148315 
L 276.38136 73.877728 
L 276.38136 73.877728 
" clip-path="url(#paa5c65acb6)" style="fill: none; stroke: #000000; stroke-width: 1.5; stroke-linecap: square"/>
   </g>
  </g>
 </g>
 <defs>
  <clipPath id="paa5c65acb6">
   <rect x="7.2" y="7.2" width="281.99952" height="209.99952"/>
  </clipPath>
 </defs>
</svg>
